<svg width="556" height="180" viewBox="0 0 556 180" fill="none" xmlns="http://www.w3.org/2000/svg">
<path d="M35.7798 180C34.3675 180 32.9551 180 31.5428 180C28.718 180 25.4225 179.529 22.5978 179.058C19.7731 178.586 17.4191 177.644 14.5944 176.702C12.2405 175.288 9.88654 173.874 8.00339 171.99C6.12024 170.105 4.23709 167.749 3.29551 165.393C1.88315 163.037 1.41236 160.209 0.941575 157.382C0.470787 154.555 0 151.728 0 148.429C0 147.487 0 144.188 0 144.188V35.3403C0 35.3403 0 32.0419 0 31.0995C0 28.2723 0.470787 24.9738 0.941575 22.1466C1.41236 19.7906 2.35394 16.9633 3.7663 14.6073C5.17866 12.2513 6.59102 9.89529 8.47417 8.01047C10.3573 6.12565 12.7113 4.71204 15.0652 3.29843C17.4191 1.88482 20.2439 1.41361 23.0686 0.942408C25.8933 0.471204 28.718 0 32.0135 0H36.2506H520.22H524.457C527.282 0 530.107 0.471204 533.402 0.942408C536.227 1.41361 538.581 2.35602 541.406 3.29843C546.113 5.65445 550.351 9.89529 552.704 14.6073C554.117 16.9633 554.588 19.7906 555.058 22.1466C555.529 24.9738 556 28.2723 556 31.0995C556 32.5131 556 33.9267 556 35.3403C556 37.2251 556 38.6387 556 40.5236V139.005C556 140.89 556 142.304 556 144.188C556 145.602 556 147.016 556 148.429C556 151.257 555.529 154.084 555.058 157.382C554.588 160.209 553.646 162.565 552.704 165.393C551.292 167.749 549.88 170.105 547.997 171.99C546.113 173.874 543.76 175.759 541.406 176.702C539.052 178.115 536.227 179.058 533.402 179.058C530.577 179.529 527.753 180 524.457 180C523.045 180 521.633 180 520.22 180H515.041H35.7798Z" fill="black"/>
<path fill-rule="evenodd" clip-rule="evenodd" d="M279.554 95.4831C269.824 95.4831 261.832 102.696 261.832 113.001C261.832 122.961 269.824 130.518 279.554 130.518C289.284 130.518 297.277 122.961 297.277 113.001C297.277 102.696 289.284 95.4831 279.554 95.4831ZM279.554 123.648C274.342 123.648 269.477 119.183 269.477 113.001C269.477 106.818 273.994 102.353 279.554 102.353C284.767 102.353 289.632 106.818 289.632 113.001C289.284 119.183 284.767 123.648 279.554 123.648ZM240.634 95.4831C230.904 95.4831 222.912 102.696 222.912 113.001C222.912 122.961 230.904 130.518 240.634 130.518C250.364 130.518 258.357 122.961 258.357 113.001C258.357 102.696 250.364 95.4831 240.634 95.4831ZM240.634 123.648C235.422 123.648 230.557 119.183 230.557 113.001C230.557 106.818 235.074 102.353 240.634 102.353C245.847 102.353 250.712 106.818 250.712 113.001C250.712 119.183 245.847 123.648 240.634 123.648ZM194.417 100.979V108.535H212.487C211.792 112.657 210.402 115.748 208.317 117.809C205.537 120.557 201.714 123.305 194.417 123.305C183.297 123.305 174.609 114.374 174.609 103.383C174.609 92.3918 183.297 83.4614 194.417 83.4614C200.324 83.4614 204.842 85.8657 207.969 88.6136L213.182 83.4614C208.664 79.3396 202.757 75.9049 194.417 75.9049C179.127 75.9049 166.617 88.2701 166.617 103.04C166.617 118.153 179.474 130.174 194.417 130.174C202.757 130.174 208.664 127.427 213.529 122.618C218.394 117.809 220.132 110.94 220.132 105.101C220.132 103.383 220.132 101.666 219.784 100.292H194.417V100.979ZM383.109 106.474C381.719 102.696 377.202 95.4831 367.819 95.4831C358.784 95.4831 351.139 102.696 351.139 113.001C351.139 122.961 358.784 130.518 368.862 130.518C376.854 130.518 381.719 125.709 383.804 122.618L377.897 118.496C375.812 121.244 373.032 123.305 369.209 123.305C365.387 123.305 362.259 121.587 360.522 118.153L384.152 108.535L383.109 106.474ZM359.132 112.314C358.784 105.444 364.344 102.009 368.514 102.009C371.642 102.009 374.074 103.383 375.117 105.787L359.132 112.314ZM339.672 129.487H347.317V77.9657H339.672V129.487ZM327.162 99.2614C325.077 97.2005 321.949 95.4831 317.432 95.4831C308.397 95.4831 300.404 103.04 300.404 113.001C300.404 122.961 308.397 130.518 317.432 130.518C321.602 130.518 325.077 128.801 326.814 126.396H327.162V128.801C327.162 135.327 323.687 139.105 317.779 139.105C312.914 139.105 310.134 135.67 308.744 132.922L301.794 135.67C303.879 140.479 308.744 145.974 317.432 145.974C326.467 145.974 334.459 140.822 334.459 127.77V96.5136H327.162V99.2614ZM318.127 123.648C312.914 123.648 308.397 119.183 308.397 113.001C308.397 106.818 312.914 102.353 318.127 102.353C323.339 102.353 327.509 106.818 327.509 113.001C327.509 119.183 323.339 123.648 318.127 123.648ZM419.597 77.9657H400.832V129.487H408.477V109.909H419.249C427.937 109.909 436.277 103.727 436.277 93.7657C436.277 83.8049 428.284 77.9657 419.597 77.9657ZM419.944 102.696H408.824V85.1788H419.944C425.852 85.1788 428.979 89.9875 428.979 94.1092C428.979 97.8875 425.852 102.696 419.944 102.696ZM467.899 95.4831C462.339 95.4831 456.432 97.8875 453.999 103.383L460.949 106.131C462.339 103.383 465.119 102.353 467.899 102.353C472.069 102.353 475.892 104.757 476.239 108.879V109.566C474.849 108.879 471.722 107.505 468.247 107.505C460.949 107.505 453.304 111.627 453.304 119.183C453.304 126.053 459.559 130.518 466.162 130.518C471.374 130.518 474.154 128.114 476.239 125.366H476.587V129.487H484.232V109.909C483.884 100.635 476.934 95.4831 467.899 95.4831ZM467.204 123.648C464.772 123.648 460.949 122.274 460.949 119.183C460.949 115.061 465.467 113.687 469.289 113.687C472.764 113.687 474.154 114.374 476.239 115.405C475.892 120.214 471.722 123.648 467.204 123.648ZM511.337 96.5136L502.302 118.84H501.954L492.572 96.5136H484.232L498.132 127.77L490.139 144.944H498.132L519.677 96.5136H511.337ZM441.142 129.487H448.787V77.9657H441.142V129.487Z" fill="white"/>
<path fill-rule="evenodd" clip-rule="evenodd" d="M39.085 37.0908C37.695 38.1212 37 40.1821 37 42.9299V133.952C37 136.356 37.695 138.417 39.085 139.791L39.4325 140.134L91.2095 89.2995V88.2691V87.5821L39.085 37.0908Z" fill="url(#paint0_linear)"/>
<path fill-rule="evenodd" clip-rule="evenodd" d="M108.239 105.788L90.8642 88.9571V88.2702V87.5832L108.239 70.7528L108.586 71.0963L129.089 82.4311C134.996 85.8658 134.996 91.018 129.089 94.4528L108.586 105.788H108.239Z" fill="url(#paint1_linear)"/>
<path fill-rule="evenodd" clip-rule="evenodd" d="M108.587 105.788L90.8645 88.2703L39.087 139.448C41.172 141.509 44.2995 141.853 47.7745 139.792L108.587 105.788Z" fill="url(#paint2_linear)"/>
<path fill-rule="evenodd" clip-rule="evenodd" d="M108.587 70.7524L47.4267 36.748C43.9517 34.6871 40.8242 35.0306 38.7392 37.0914L90.8642 88.2698L108.587 70.7524Z" fill="url(#paint3_linear)"/>
<path opacity="0.25" fill-rule="evenodd" clip-rule="evenodd" d="M47.425 37.435L128.74 83.1176C131.52 84.4915 132.91 86.5524 133.257 88.6133C133.257 86.5524 131.867 84.148 128.74 82.7741L47.425 36.7481C41.5175 33.3133 37 36.0611 37 42.9307V43.6176C37 36.7481 41.865 34.0002 47.425 37.435Z" fill="white"/>
<path fill-rule="evenodd" clip-rule="evenodd" d="M171.127 64.5696H168V56.3262H170.432C172.517 54.6088 173.56 51.174 173.56 46.7088V34.6871H190.24V56.3262H193.02V64.5696H189.893V59.4175H170.78V64.5696H171.127ZM176.687 47.0523C176.687 50.8305 175.992 54.2653 174.255 56.6697H186.765V37.7784H176.34V47.0523H176.687Z" fill="white" stroke="white" stroke-width="0.2"/>
<path fill-rule="evenodd" clip-rule="evenodd" d="M218.041 56.326C215.609 58.7304 212.482 60.1043 209.007 60.1043C205.184 60.1043 202.404 58.7304 199.972 56.326C197.539 53.9217 196.149 50.8304 196.149 47.0521C196.149 43.2739 197.539 40.5261 199.972 37.7783C202.404 35.3739 205.532 34 209.007 34C212.482 34 215.609 35.3739 218.041 37.7783C220.474 40.1826 221.864 43.2739 221.864 47.0521C221.864 50.8304 220.474 53.9217 218.041 56.326ZM202.057 54.2652C203.794 55.9825 206.227 57.013 209.007 57.013C211.787 57.013 213.872 55.9825 215.957 54.2652C217.694 52.5478 218.736 50.1434 218.736 47.0521C218.736 44.3043 217.694 41.9 215.957 39.8391C214.219 38.1217 211.787 37.0913 209.007 37.0913C206.227 37.0913 204.142 38.1217 202.057 39.8391C200.319 41.5565 199.277 43.9608 199.277 47.0521C199.277 50.1434 200.319 52.2043 202.057 54.2652Z" fill="white" stroke="white" stroke-width="0.2"/>
<path fill-rule="evenodd" clip-rule="evenodd" d="M237.852 60.1043C234.029 60.1043 231.249 58.7304 228.469 56.326C226.037 53.9217 224.647 50.8304 224.647 47.0521C224.647 43.2739 226.037 40.1826 228.469 37.7783C230.902 35.3739 234.029 34 237.852 34C241.674 34 244.802 35.3739 246.887 38.1217L244.802 40.1826C243.064 38.1217 240.632 37.0913 237.852 37.0913C235.072 37.0913 232.987 38.1217 230.902 39.8391C229.164 41.9 228.122 44.3043 228.122 47.0521C228.122 50.1434 229.164 52.2043 230.902 54.2652C232.639 55.9825 235.072 57.013 237.852 57.013C240.979 57.013 243.412 55.9825 245.497 53.5782L247.582 55.6391C246.539 57.013 245.149 58.0434 243.412 58.7304C241.674 59.7608 239.937 60.1043 237.852 60.1043Z" fill="white" stroke="white" stroke-width="0.2"/>
<path fill-rule="evenodd" clip-rule="evenodd" d="M260.787 59.4176H257.659V37.7784H250.709V34.6871H267.737V37.7784H260.787V59.4176Z" fill="white" stroke="white" stroke-width="0.2"/>
<path fill-rule="evenodd" clip-rule="evenodd" d="M289.969 34.6871L280.587 55.6393C279.197 58.7306 277.459 60.1046 274.68 60.1046C273.985 60.1046 272.942 59.7611 272.247 59.4176L272.942 56.3263C273.637 56.6698 273.985 56.6698 274.68 56.6698C275.375 56.6698 276.069 56.6698 276.417 56.3263C276.764 55.9828 277.112 55.6393 277.459 54.6089L278.502 52.548L269.815 34.6871H273.637L279.892 48.7697L285.799 34.6871H289.969Z" fill="white" stroke="white" stroke-width="0.2"/>
<path fill-rule="evenodd" clip-rule="evenodd" d="M293.442 59.4176V34.6871H311.513V59.4176H308.386V37.7784H296.57V59.4176H293.442Z" fill="white" stroke="white" stroke-width="0.2"/>
<path fill-rule="evenodd" clip-rule="evenodd" d="M317.426 59.4176V34.6871H320.554V45.335H333.062V34.6871H336.189V59.4176H333.062V48.4263H320.554V59.4176H317.426Z" fill="white" stroke="white" stroke-width="0.2"/>
<path fill-rule="evenodd" clip-rule="evenodd" d="M362.597 56.326C360.165 58.7304 357.037 60.1043 353.563 60.1043C349.74 60.1043 346.961 58.7304 344.528 56.326C342.096 53.9217 340.706 50.8304 340.706 47.0521C340.706 43.2739 342.096 40.5261 344.528 37.7783C346.961 35.3739 350.088 34 353.563 34C357.037 34 360.165 35.3739 362.597 37.7783C365.029 40.1826 366.419 43.2739 366.419 47.0521C366.072 50.8304 365.029 53.9217 362.597 56.326ZM346.613 54.2652C348.351 55.9825 350.783 57.013 353.563 57.013C356.342 57.013 358.427 55.9825 360.512 54.2652C362.249 52.5478 363.292 50.1434 363.292 47.0521C363.292 44.3043 362.249 41.9 360.512 39.8391C358.775 38.1217 356.342 37.0913 353.563 37.0913C350.783 37.0913 348.698 38.1217 346.613 39.8391C344.876 41.5565 343.833 43.9608 343.833 47.0521C343.833 50.1434 344.528 52.2043 346.613 54.2652Z" fill="white" stroke="white" stroke-width="0.2"/>
<path fill-rule="evenodd" clip-rule="evenodd" d="M379.282 59.4176V34.6871H388.316C390.401 34.6871 392.138 35.3741 393.528 36.748C394.918 38.1219 395.613 39.4958 395.613 41.5567C395.613 42.5871 395.265 43.6176 394.571 44.648C393.876 45.6784 393.181 46.3654 392.138 46.7089C393.528 47.0524 394.223 47.7393 395.265 48.7698C395.96 49.8002 396.308 50.8306 396.308 52.2045C396.308 54.2654 395.613 55.9828 394.223 57.3567C392.833 58.7307 391.096 59.4176 389.011 59.4176H379.282ZM382.41 45.335H388.316C389.359 45.335 390.401 44.9915 391.096 44.3045C391.791 43.6176 392.138 42.5871 392.138 41.5567C392.138 40.5263 391.791 39.8393 391.096 38.8089C390.401 38.1219 389.359 37.7784 388.316 37.7784H382.41V45.335ZM382.41 56.3263H389.011C390.401 56.3263 391.096 55.9828 392.138 54.9524C392.833 54.2654 393.181 53.235 393.181 52.2045C393.181 51.1741 392.833 50.1437 392.138 49.4567C391.443 48.7698 390.401 48.0828 389.011 48.0828H382.757V56.3263H382.41Z" fill="white" stroke="white" stroke-width="0.2"/>
<defs>
<linearGradient id="paint0_linear" x1="86.3007" y1="41.7865" x2="3.68021" y2="64.3884" gradientUnits="userSpaceOnUse">
<stop stop-color="#00A0FF"/>
<stop offset="0.00657445" stop-color="#00A1FF"/>
<stop offset="0.2601" stop-color="#00BEFF"/>
<stop offset="0.5122" stop-color="#00D2FF"/>
<stop offset="0.7604" stop-color="#00DFFF"/>
<stop offset="1" stop-color="#00E3FF"/>
</linearGradient>
<linearGradient id="paint1_linear" x1="136.46" y1="88.2757" x2="35.611" y2="88.2757" gradientUnits="userSpaceOnUse">
<stop stop-color="#FFE000"/>
<stop offset="0.4087" stop-color="#FFBD00"/>
<stop offset="0.7754" stop-color="#FFA500"/>
<stop offset="1" stop-color="#FF9C00"/>
</linearGradient>
<linearGradient id="paint2_linear" x1="98.9078" y1="97.6974" x2="33.7656" y2="208.809" gradientUnits="userSpaceOnUse">
<stop stop-color="#FF3A44"/>
<stop offset="1" stop-color="#C31162"/>
</linearGradient>
<linearGradient id="paint3_linear" x1="25.8768" y1="6.66433" x2="54.7163" y2="56.348" gradientUnits="userSpaceOnUse">
<stop stop-color="#32A071"/>
<stop offset="0.0685" stop-color="#2DA771"/>
<stop offset="0.4762" stop-color="#15CF74"/>
<stop offset="0.8009" stop-color="#06E775"/>
<stop offset="1" stop-color="#00F076"/>
</linearGradient>
</defs>
</svg>
